HIERARCHY
ROOT Hips
{
    OFFSET 0.000000 0.000000 0.000000
    CHANNELS 6 Xposition Yposition Zposition Zrotation Xrotation Yrotation
    JOINT Spine
    {
        OFFSET -0.000000 8.349382 0.000000
        CHANNELS 3 Zrotation Xrotation Yrotation
        JOINT Spine1
        {
            OFFSET -0.000000 23.269058 0.000000
            CHANNELS 3 Zrotation Xrotation Yrotation
            JOINT Neck
            {
                OFFSET -0.000000 23.173496 2.106681
                CHANNELS 3 Zrotation Xrotation Yrotation
                JOINT Head
                {
                    OFFSET -0.000000 14.255042 -2.036435
                    CHANNELS 3 Zrotation Xrotation Yrotation
                    End Site
                    {
                        OFFSET -0.000000 25.455433 0.000000
                    }
                }
            }
            JOINT LeftShoulder
            {
                OFFSET 3.917082 21.531742 0.000256
                CHANNELS 3 Zrotation Xrotation Yrotation
                JOINT LeftArm
                {
                    OFFSET 10.728225 0.000000 0.000000
                    CHANNELS 3 Zrotation Xrotation Yrotation
                    JOINT LeftForeArm
                    {
                        OFFSET 30.046112 0.000000 0.000000
                        CHANNELS 3 Zrotation Xrotation Yrotation
                        JOINT LeftHand
                        {
                            OFFSET 29.023712 0.000000 0.000000
                            CHANNELS 3 Zrotation Xrotation Yrotation
                            End Site
                            {
                                OFFSET 15.273261 0.000000 0.000000
                            }
                        }
                    }
                }
            }
            JOINT RightShoulder
            {
                OFFSET -3.920664 21.531742 0.000256
                CHANNELS 3 Zrotation Xrotation Yrotation
                JOINT RightArm
                {
                    OFFSET -10.728225 0.000000 0.000000
                    CHANNELS 3 Zrotation Xrotation Yrotation
                    JOINT RightForeArm
                    {
                        OFFSET -30.046112 0.000000 0.000000
                        CHANNELS 3 Zrotation Xrotation Yrotation
                        JOINT RightHand
                        {
                            OFFSET -29.023712 0.000000 0.000000
                            CHANNELS 3 Zrotation Xrotation Yrotation
                            End Site
                            {
                                OFFSET -15.273261 0.000000 0.000000
                            }
                        }
                    }
                }
            }
        }
    }
    JOINT LeftUpLeg
    {
        OFFSET 10.182174 0.000000 0.000000
        CHANNELS 3 Zrotation Xrotation Yrotation
        JOINT LeftLeg
        {
            OFFSET -0.000000 -49.689274 0.000000
            CHANNELS 3 Zrotation Xrotation Yrotation
            JOINT LeftFoot
            {
                OFFSET -0.000000 -39.155319 0.000000
                CHANNELS 3 Zrotation Xrotation Yrotation
                JOINT LeftToeBase
                {
                    OFFSET -0.000000 -6.618412 15.273261
                    CHANNELS 3 Zrotation Xrotation Yrotation
                    End Site
                    {
                        OFFSET -0.000000 0.000000 4.072869
                    }
                }
            }
        }
    }
    JOINT RightUpLeg
    {
        OFFSET -10.182174 0.000000 0.000000
        CHANNELS 3 Zrotation Xrotation Yrotation
        JOINT RightLeg
        {
            OFFSET -0.000000 -49.689274 0.000000
            CHANNELS 3 Zrotation Xrotation Yrotation
            JOINT RightFoot
            {
                OFFSET -0.000000 -39.155319 0.000000
                CHANNELS 3 Zrotation Xrotation Yrotation
                JOINT RightToeBase
                {
                    OFFSET -0.000000 -6.618412 15.273261
                    CHANNELS 3 Zrotation Xrotation Yrotation
                    End Site
                    {
                        OFFSET -0.000000 0.000000 4.072869
                    }
                }
            }
        }
    }
}
MOTION
Frames:    8
Frame Time:    0.008333
13.768424    96.883682    22.774567    2.762169    -1.707690    94.482605    -0.551295    -0.770587    -1.807047    4.681935    7.546748    -2.112317    -0.212050    8.483264    14.346564    -3.215308    -9.706810    14.225203    1.554462    5.231159    -18.498741    -46.427719    35.148754    -28.359648    8.677541    -17.950966    -35.758968    -5.250274    -15.487940    5.082946    -3.137130    11.063616    -15.921570    50.279015    51.406391    29.847775    3.510342    -5.073647    5.077732    0.433638    -5.212316    4.359573    3.665646    3.801475    -5.820456    -8.484179    6.702042    -6.355537    8.194468    -9.500127    18.708490    0.000000    0.000000    0.000000    -10.256726    -22.306320    -10.473599    13.635054    57.775543    10.734928    3.905894    -10.484447    -17.023664    0.000000    0.000000    0.000000    
13.686440    96.930038    22.724136    2.768956    -1.911337    94.642120    -0.264001    -0.708063    -1.842874    4.508224    7.577134    -2.139922    -0.128524    8.298818    14.350851    -3.223096    -9.563444    14.226124    1.633904    5.209247    -18.503206    -46.263046    34.876324    -28.567938    8.813242    -18.095587    -36.345886    -5.368461    -15.537940    4.841553    -2.980963    11.184119    -15.961860    50.203953    51.619133    29.796268    3.516786    -5.054260    5.051328    0.909649    -5.173685    4.445248    3.803439    3.818752    -5.803188    -8.365823    6.492640    -6.383753    8.196766    -9.353178    18.563328    0.000000    0.000000    0.000000    -10.352349    -22.954168    -10.625125    14.212192    59.145058    10.580122    3.316686    -11.023857    -17.522449    0.000000    0.000000    0.000000    
13.608602    96.980896    22.677488    2.793183    -2.100256    94.776138    0.001792    -0.640090    -1.868783    4.313076    7.616117    -2.156025    -0.012903    8.282084    14.296225    -3.258899    -9.633398    14.150877    1.795293    5.137772    -18.513479    -46.233932    34.673069    -28.708082    9.126335    -18.114437    -36.925930    -5.839408    -15.440491    5.114645    -2.888242    11.259770    -15.904579    50.269348    51.827328    29.613977    3.564954    -5.086140    5.092086    1.228317    -5.198021    4.314111    3.989583    3.899985    -5.871790    -8.386600    6.165345    -6.437363    8.234357    -9.106696    18.533796    0.000000    0.000000    0.000000    -10.401305    -23.547670    -10.852163    14.578007    60.465260    10.334723    2.656549    -11.495533    -17.806705    0.000000    0.000000    0.000000    
13.531238    97.036072    22.641331    2.779062    -2.253025    94.931602    0.231680    -0.582235    -1.937281    4.118406    7.582100    -2.211459    0.051565    8.223932    14.341969    -3.174372    -9.614326    14.212815    1.883962    4.970956    -18.431118    -46.281017    34.626904    -28.688744    9.272488    -18.267538    -37.535660    -5.739594    -15.503096    5.363064    -2.816583    11.324511    -15.800753    50.380169    52.057751    29.380537    3.506180    -5.014925    5.174990    1.891225    -5.102015    4.306108    4.036567    3.865411    -5.833458    -8.154603    6.027485    -6.347518    8.051740    -8.992883    18.239422    0.000000    0.000000    0.000000    -10.530609    -24.129015    -11.031126    15.123737    61.752159    10.264799    1.972751    -11.868044    -18.303677    0.000000    0.000000    0.000000    
13.474133    97.093399    22.607967    2.783625    -2.366649    95.050941    0.376065    -0.492343    -1.955491    3.966102    7.479360    -2.216487    0.016803    8.366449    14.374001    -2.914334    -9.871574    14.299479    1.994903    4.919489    -18.407486    -46.333073    34.540825    -28.724751    9.380507    -18.398117    -38.102570    -5.181505    -15.531538    5.520691    -2.754983    11.434309    -15.714136    50.516483    52.276558    29.134943    3.509256    -4.980433    5.218562    2.174968    -5.057704    4.340461    4.110457    3.900534    -5.843369    -8.067479    5.805158    -6.338761    7.911497    -8.789768    18.094170    0.000000    0.000000    0.000000    -10.569174    -24.619186    -11.376492    15.020672    62.881969    9.891919    1.619983    -12.291850    -17.949589    0.000000    0.000000    0.000000    
13.415697    97.151718    22.576752    2.784095    -2.461526    95.174347    0.483906    -0.412128    -1.972899    3.832430    7.372198    -2.221610    0.122511    8.320683    14.293504    -2.742922    -9.676434    14.250590    2.138475    4.790063    -18.410603    -46.518829    34.547810    -28.685408    9.511093    -18.576611    -38.527336    -5.267369    -15.640923    5.656588    -2.677734    11.533191    -15.659600    50.534443    52.595592    29.005304    3.455896    -4.934481    5.217285    2.639692    -4.987280    4.535009    4.176242    3.929973    -5.812991    -7.992488    5.594046    -6.458671    7.776325    -8.566699    18.029583    0.000000    0.000000    0.000000    -10.652470    -25.103916    -11.557369    15.308912    64.022789    9.823404    1.340992    -12.680477    -18.211802    0.000000    0.000000    0.000000    
13.373605    97.205902    22.559586    2.775740    -2.532177    95.278671    0.538123    -0.364279    -1.998303    3.765651    7.284554    -2.239793    0.176084    8.103350    14.347289    -2.560994    -9.219843    14.352539    2.192258    4.643055    -18.315603    -46.647316    34.632072    -28.603577    9.545609    -18.642960    -39.036308    -4.910845    -15.646678    5.972500    -2.717215    11.599272    -15.614831    50.622044    52.946232    28.883736    3.441276    -5.010741    5.276799    2.730527    -5.062591    4.470911    4.242322    3.954232    -5.774603    -7.950779    5.404189    -6.482555    7.604551    -8.378396    17.871449    0.000000    0.000000    0.000000    -10.735120    -25.525259    -11.542877    16.015078    65.052139    9.675303    1.087794    -13.232903    -18.786802    0.000000    0.000000    0.000000    
13.338973    97.253036    22.557894    2.767541    -2.594381    95.383583    0.535983    -0.306243    -2.013385    3.750907    7.149393    -2.249233    -0.125384    8.168361    14.230797    -1.873882    -9.253263    14.402320    2.225268    4.562365    -18.235319    -46.758213    34.770763    -28.534334    9.675972    -18.937223    -39.475548    -4.800786    -15.864244    6.197100    -2.735506    11.656442    -15.549582    50.766674    53.245609    28.665758    3.415167    -5.104798    5.342803    2.706397    -5.160878    4.364033    4.307771    3.964420    -5.451459    -7.882601    5.288218    -6.690641    7.383508    -8.245421    17.624271    0.000000    0.000000    0.000000    -10.750709    -25.884645    -11.617849    16.097439    65.973038    9.979911    0.918592    -13.704727    -19.032812    0.000000    0.000000    0.000000    
